<svg xmlns="http://www.w3.org/2000/svg" xmlns:xlink="http://www.w3.org/1999/xlink" version="1.1" class="marks" width="819" height="249" viewBox="0 0 819 249"><rect width="819" height="249" fill="white"/><g fill="none" stroke-miterlimit="10" transform="translate(78,11)"><g class="mark-group role-frame root" role="graphics-object" aria-roledescription="group mark container"><g transform="translate(0,0)"><path class="background" aria-hidden="true" d="M0,0h0v200h0Z"/><g><g class="mark-group role-scope concat_0_group" role="graphics-object" aria-roledescription="group mark container"><g transform="translate(0,0)"><path class="background" aria-hidden="true" d="M0.5,0.5h200v200h-200Z" stroke="#ddd"/><g><g class="mark-group role-axis" aria-hidden="true"><g transform="translate(0.5,200.5)"><path class="background" aria-hidden="true" d="M0,0h0v0h0Z" pointer-events="none"/><g><g class="mark-rule role-axis-grid" pointer-events="none"><line transform="translate(0,-200)" x2="0" y2="200" stroke="#ddd" stroke-width="1" opacity="1"/><line transform="translate(63,-200)" x2="0" y2="200" stroke="#ddd" stroke-width="1" opacity="1"/><line transform="translate(125,-200)" x2="0" y2="200" stroke="#ddd" stroke-width="1" opacity="1"/><line transform="translate(188,-200)" x2="0" y2="200" stroke="#ddd" stroke-width="1" opacity="1"/></g></g><path class="foreground" aria-hidden="true" d="" pointer-events="none" display="none"/></g></g><g class="mark-group role-axis" aria-hidden="true"><g transform="translate(0.5,0.5)"><path class="background" aria-hidden="true" d="M0,0h0v0h0Z" pointer-events="none"/><g><g class="mark-rule role-axis-grid" pointer-events="none"><line transform="translate(0,200)" x2="200" y2="0" stroke="#ddd" stroke-width="1" opacity="1"/><line transform="translate(0,160)" x2="200" y2="0" stroke="#ddd" stroke-width="1" opacity="1"/><line transform="translate(0,120)" x2="200" y2="0" stroke="#ddd" stroke-width="1" opacity="1"/><line transform="translate(0,80)" x2="200" y2="0" stroke="#ddd" stroke-width="1" opacity="1"/><line transform="translate(0,40)" x2="200" y2="0" stroke="#ddd" stroke-width="1" opacity="1"/><line transform="translate(0,0)" x2="200" y2="0" stroke="#ddd" stroke-width="1" opacity="1"/></g></g><path class="foreground" aria-hidden="true" d="" pointer-events="none" display="none"/></g></g><g class="mark-group role-axis" role="graphics-symbol" aria-roledescription="axis" aria-label="X-axis titled 'Percentage of the Population with COVID' for a linear scale with values from 0 to 16"><g transform="translate(0.5,200.5)"><path class="background" aria-hidden="true" d="M0,0h0v0h0Z" pointer-events="none"/><g><g class="mark-rule role-axis-tick" pointer-events="none"><line transform="translate(0,0)" x2="0" y2="5" stroke="#888" stroke-width="1" opacity="1"/><line transform="translate(63,0)" x2="0" y2="5" stroke="#888" stroke-width="1" opacity="1"/><line transform="translate(125,0)" x2="0" y2="5" stroke="#888" stroke-width="1" opacity="1"/><line transform="translate(188,0)" x2="0" y2="5" stroke="#888" stroke-width="1" opacity="1"/></g><g class="mark-text role-axis-label" pointer-events="none"><text text-anchor="start" transform="translate(0,15)" font-family="sans-serif" font-size="10px" fill="#000" opacity="1">0</text><text text-anchor="middle" transform="translate(62.5,15)" font-family="sans-serif" font-size="10px" fill="#000" opacity="1">5</text><text text-anchor="middle" transform="translate(125,15)" font-family="sans-serif" font-size="10px" fill="#000" opacity="1">10</text><text text-anchor="middle" transform="translate(187.5,15)" font-family="sans-serif" font-size="10px" fill="#000" opacity="1">15</text></g><g class="mark-rule role-axis-domain" pointer-events="none"><line transform="translate(0,0)" x2="200" y2="0" stroke="#888" stroke-width="1" opacity="1"/></g><g class="mark-text role-axis-title" pointer-events="none"><text text-anchor="middle" transform="translate(100,30)" font-family="sans-serif" font-size="11px" font-weight="bold" fill="#000" opacity="1">Percentage of the Population with COVID</text></g></g><path class="foreground" aria-hidden="true" d="" pointer-events="none" display="none"/></g></g><g class="mark-group role-axis" role="graphics-symbol" aria-roledescription="axis" aria-label="Y-axis titled 'P(T)' for a linear scale with values from 0 to 100"><g transform="translate(0.5,0.5)"><path class="background" aria-hidden="true" d="M0,0h0v0h0Z" pointer-events="none"/><g><g class="mark-rule role-axis-tick" pointer-events="none"><line transform="translate(0,200)" x2="-5" y2="0" stroke="#888" stroke-width="1" opacity="1"/><line transform="translate(0,160)" x2="-5" y2="0" stroke="#888" stroke-width="1" opacity="1"/><line transform="translate(0,120)" x2="-5" y2="0" stroke="#888" stroke-width="1" opacity="1"/><line transform="translate(0,80)" x2="-5" y2="0" stroke="#888" stroke-width="1" opacity="1"/><line transform="translate(0,40)" x2="-5" y2="0" stroke="#888" stroke-width="1" opacity="1"/><line transform="translate(0,0)" x2="-5" y2="0" stroke="#888" stroke-width="1" opacity="1"/></g><g class="mark-text role-axis-label" pointer-events="none"><text text-anchor="end" transform="translate(-7,203)" font-family="sans-serif" font-size="10px" fill="#000" opacity="1">0</text><text text-anchor="end" transform="translate(-7,163)" font-family="sans-serif" font-size="10px" fill="#000" opacity="1">20</text><text text-anchor="end" transform="translate(-7,123)" font-family="sans-serif" font-size="10px" fill="#000" opacity="1">40</text><text text-anchor="end" transform="translate(-7,83)" font-family="sans-serif" font-size="10px" fill="#000" opacity="1">60</text><text text-anchor="end" transform="translate(-7,42.99999999999999)" font-family="sans-serif" font-size="10px" fill="#000" opacity="1">80</text><text text-anchor="end" transform="translate(-7,3)" font-family="sans-serif" font-size="10px" fill="#000" opacity="1">100</text></g><g class="mark-rule role-axis-domain" pointer-events="none"><line transform="translate(0,200)" x2="0" y2="-200" stroke="#888" stroke-width="1" opacity="1"/></g><g class="mark-text role-axis-title" pointer-events="none"><text text-anchor="middle" transform="translate(-35,100) rotate(-90) translate(0,-2)" font-family="sans-serif" font-size="11px" font-weight="bold" fill="#000" opacity="1">P(T)</text></g></g><path class="foreground" aria-hidden="true" d="" pointer-events="none" display="none"/></g></g><g class="mark-group role-scope concat_0_pathgroup" role="graphics-object" aria-roledescription="group mark container"><g transform="translate(0,0)"><path class="background" aria-hidden="true" d="M0,0h200v200h-200Z"/><g><g class="mark-line role-mark concat_0_marks" role="graphics-object" aria-roledescription="line mark container"><path aria-label="Percentage of the Population with COVID: 0; P(T): 0; Pool Size: 5" role="graphics-symbol" aria-roledescription="line mark" d="M0,200L1.25,199.2011992002001L2.5,198.4047936032L3.7500000000000004,197.6107784162L5,196.8191488512L6.25,196.02990012499998L7.500000000000001,195.24302745920008L8.75,194.4585260802L10,193.67639121919999L11.25,192.8966181122L12.5,192.119202L13.750000000000002,191.3441381282001L15.000000000000002,190.5714217472L16.25,189.8010481122L17.5,189.0330124832L18.75,188.267310125L20,187.5039363072001L21.250000000000004,186.7428863042L22.5,185.9841553952L23.75,185.22773886419998L25,184.473632L26.25,183.72183009620008L27.500000000000004,182.97232845119999L28.750000000000004,182.22512236819998L30.000000000000004,181.4802071552L31.25,180.73757812499997L32.5,179.99723059520005L33.75,179.25915988819997L35,178.52336133119996L36.25000000000001,177.7898302562L37.5,177.058562L38.75,176.32955190420006L40,175.60279531519998L41.25,174.87828758420005L42.50000000000001,174.15602406719998L43.75,173.43600012499996L45,172.71821112320004L46.25,172.0026524322L47.5,171.28931942720004L48.75000000000001,170.57820748819998L50,169.86931199999998L51.25000000000001,169.16262835220007L52.5,168.45815193919998L53.75,167.75587816020007L55.00000000000001,167.05580241919998L56.25,166.35792012499996L57.50000000000001,165.66222669120006L58.75,164.96871753619996L60.00000000000001,164.27738808320004L61.25000000000001,163.58823376019998L62.5,162.90124999999998L63.75000000000001,162.21643224020005L65,161.53377592319998L66.25000000000001,160.85327649620004L67.5,160.17492941119997L68.75,159.49873012499998L70,158.82467409920005L71.25,158.15275680019997L72.50000000000001,157.48297369920004L73.75,156.81532027219998L75,156.14979199999996L76.25,155.48638436820005L77.5,154.82509286719997L78.75000000000001,154.16591299220005L80,153.50884024319998L81.25,152.85387012500004L82.5,152.20099814720004L83.75,151.55021982419996L85.00000000000001,150.90153067520004L86.25,150.25492622419995L87.5,149.61040200000002L88.75,148.9679535362L90,148.32757637119997L91.25000000000001,147.68926604820004L92.5,147.05301811519996L93.75,146.41882812500003L95,145.78669163520001L96.25,145.15660420819992L97.50000000000001,144.52856141120003L98.75,143.90255881619996L100,143.278592L101.25,142.65665654420002L102.50000000000001,142.03674803519996L103.75000000000001,141.41886206420003L105,140.80299422719995L106.25,140.18914012500002L107.5,139.57729536320002L108.75000000000001,138.9674555522L110.00000000000001,138.3596163072L111.25,137.75377324819996L112.5,137.14992200000006L113.75,136.54805819220002L115.00000000000001,135.94817745919997L116.25000000000001,135.35027544020002L117.5,134.75434777919995L118.75,134.160390125L120.00000000000001,133.5683981312L121.25000000000001,132.97836745620003L122.50000000000001,132.39029376320002L123.75,131.80417272019994L125,131.22000000000003L126.25000000000001,130.6377712802L127.50000000000001,130.05748224319998L128.75,129.4791285762L130,128.90270597119994L131.25,128.32821012500003L132.50000000000003,127.75563673920001L133.75,127.18498152020001L135,126.61624017920002L136.25,126.04940843219994L137.5,125.48448200000001L138.75000000000003,124.9214566082L140,124.36032798720001L141.25,123.8010918722L142.5,123.24374400319995L143.75,122.68828012499999L145.00000000000003,122.13469598720002L146.25,121.5829873442L147.5,121.0331499552L148.75,120.48517958419995L150,119.93907199999998L151.25000000000003,119.39482297619999L152.5,118.8524282912L153.75,118.3118837282L155,117.77318507519993L156.25,117.236328125L157.50000000000003,116.70130867520005L158.75,116.16812252819999L160,115.63676549120001L161.25,115.10723337619999L162.5,114.57952199999997L163.75000000000003,114.05362718420005L165,113.5295447552L166.25,113.00727054419997L167.5,112.4868003872L168.75,111.968130125L170.00000000000003,111.45125560320008L171.25,110.93617267220002L172.5,110.42287718719999L173.75,109.91136500820002L175,109.40163199999999L176.25000000000003,108.89367403220005L177.5,108.38748697919999L178.75,107.88306672019998L180,107.3804091392L181.25,106.87951012499997L182.50000000000003,106.38036557120007L183.75,105.8829713762L185,105.38732344319999L186.25,104.89341768020002L187.5,104.40124999999998L188.75000000000003,103.91081632020006L190,103.4221125632L191.25,102.93513465619999L192.5,102.44987853119997L193.75,101.96634012499999L195.00000000000003,101.48451537920005L196.25,101.00440024019998L197.5,100.52599065920005L198.75,100.04928259219999L200,99.57427199999998" stroke="#4c78a8" stroke-width="2"/></g></g><path class="foreground" aria-hidden="true" d="" display="none"/></g><g transform="translate(0,0)"><path class="background" aria-hidden="true" d="M0,0h200v200h-200Z"/><g><g class="mark-line role-mark concat_0_marks" role="graphics-object" aria-roledescription="line mark container"><path aria-label="Percentage of the Population with COVID: 0; P(T): 0; Pool Size: 10" role="graphics-symbol" aria-roledescription="line mark" d="M0,200L1.25,198.20718322517502L2.5,196.4286660023947L3.7500000000000004,194.6643484350886L5,192.91413122546388L6.25,191.17791567151193L7.500000000000001,189.4556036640268L8.75,187.74709768363417L10,186.05230079783536L11.25,184.37111665805904L12.5,182.70344949672815L13.750000000000002,181.04920412433728L15.000000000000002,179.4082859265409L16.25,177.78060086125643L17.5,176.16605545577505L18.75,174.5645568038869L20,172.97601256301718L21.250000000000004,171.40033095137284L22.5,169.83742074510354L23.75,168.2871912754706L25,166.74955242602996L26.25,165.22441462982584L27.500000000000004,163.71168886659513L28.750000000000004,162.21128665998518L30.000000000000004,160.72312007478018L31.25,159.24710171414105L32.5,157.78314471685573L33.75,156.3311627546001L35,154.89107002921233L36.25000000000001,153.46278126997538L37.5,152.046211730913L38.75,150.64127718809587L40,149.24789393695818L41.25,147.86597878962786L42.50000000000001,146.4954490722635L43.75,145.13622262240713L45,143.78821778634386L46.25,142.4513534164742L47.5,141.12554886869856L48.75000000000001,139.81072399980897L50,138.50679916489602L51.25000000000001,137.21369521476277L52.5,135.9313334933511L53.75,134.65963583517998L55.00000000000001,133.3985245627909L56.25,132.14792248420827L57.50000000000001,130.90775289040687L58.75,129.6779395527911L60.00000000000001,128.4584067206864L61.25000000000001,127.2490791188376L62.5,126.04988194492184L63.75000000000001,124.86074086706851L65,123.68158202139116L66.25000000000001,122.51233200953074L67.5,121.35291789620608L68.75,120.20326720677876L70,119.06330792482476L71.25,117.93296848971757L72.50000000000001,116.81217779422322L73.75,115.70086518210181L75,114.59896044572329L76.25,113.50639382369003L77.5,112.42309599847096L78.75000000000001,111.3489980940466L80,110.28403167356151L81.25,109.22812873699002L82.5,108.18122171880864L83.75,107.14324348568094L85.00000000000001,106.11412733415145L86.25,105.09380698834813L87.5,104.08221659769752L88.75,103.07929073464624L90,102.08496439239529L91.25000000000001,101.09917298264261L92.5,100.12185233333457L93.75,99.15293868642962L95,98.19236869566849L96.25,97.24007942435648L97.50000000000001,96.2960083431546L98.75,95.36009332787873L100,94.43227265731137L101.25,93.51248501101945L102.50000000000001,92.60066946718428L103.75000000000001,91.69676550043985L105,90.80071297971966L106.25,89.91245216611503L107.5,89.03192371074033L108.75000000000001,88.15906865260943L110.00000000000001,87.29382841652078L111.25,86.4361448109506L112.5,85.5859600259577L113.75,84.74321663109473L115.00000000000001,83.90785757333067L116.25000000000001,83.07982617498189L117.5,82.259066131651L118.75,81.44552151017722L120.00000000000001,80.63913674659308L121.25000000000001,79.83985664409245L122.50000000000001,79.04762637100585L123.75,78.26239145878561L125,77.4840978L126.25000000000001,76.71269164633505L127.50000000000001,75.9481196066069L128.75,75.19032864478183L130,74.43926607800535L131.25,73.69487957464057L132.50000000000003,72.95711715231378L133.75,72.22592717597101L135,71.50125835594122L136.25,70.78305974600913L137.5,70.07128074149705L138.75000000000003,69.36587107735352L140,68.66678082625279L141.25,67.97396039670139L142.5,67.28736053115341L143.75,66.60693230413483L145.00000000000003,65.93262712037512L146.25,65.26439671294865L147.5,64.6021931414237L148.75,63.94596879001957L150,63.295676365773204L151.25000000000003,62.65126889671222L152.5,62.01269973003816L153.75,61.37992253031677L155,60.75289127767696L156.25,60.131560266017914L157.50000000000003,59.51588410122388L158.75,58.90581769938785L160,58.30131628504318L161.25,57.70233538940255L162.5,57.10883084860592L163.75000000000003,56.520758801976L165,55.93807569028164L166.25,55.360738254009775L167.5,54.788703531644536L168.75,54.22192885795462L170.00000000000003,53.66037186228889L171.25,53.103990466878884L172.5,52.552742885150614L173.75,52.006587620042644L175,51.465483462332706L176.25000000000003,50.92938948897234L177.5,50.39826506142822L178.75,49.872069824032714L180,49.35076370234049L181.25,48.8343069014939L182.50000000000003,48.32265990459543L183.75,47.815783471087855L185,47.31363863514224L186.25,46.81618670405294L187.5,46.32338925664061L188.75000000000003,45.835208141662356L190,45.351605476229274L191.25,44.87254364423225L192.5,44.39798529477377L193.75,43.927893340608335L195.00000000000003,43.462230956589586L196.25,43.00096157812479L197.5,42.54404889963715L198.75,42.09145687303442L200,41.6431497061859" stroke="#f58518" stroke-width="2"/></g></g><path class="foreground" aria-hidden="true" d="" display="none"/></g><g transform="translate(0,0)"><path class="background" aria-hidden="true" d="M0,0h200v200h-200Z"/><g><g class="mark-line role-mark concat_0_marks" role="graphics-object" aria-roledescription="line mark container"><path aria-label="Percentage of the Population with COVID: 0; P(T): 0; Pool Size: 25" role="graphics-symbol" aria-roledescription="line mark" d="M0,200L1.25,195.25479731672658L2.5,190.6175953328884L3.7500000000000004,186.08604049497924L5,181.65782825551727L6.25,177.33070210026156L7.500000000000001,173.10245259378888L8.75,168.97091644310257L10,164.93397557895895L11.25,160.98955625457836L12.5,157.13562816144375L13.750000000000002,153.37020356187125L15.000000000000002,149.69133643805088L16.25,146.0971216572692L17.5,142.58569415300778L18.75,139.15522812164517L20,135.8039362344727L21.250000000000004,132.5300688647472L22.5,129.33191332951571L23.75,126.20779314593216L25,123.15606730181563L26.25,120.17512954018432L27.500000000000004,117.26340765751173L28.750000000000004,114.41936281546181L30.000000000000004,111.64148886584633L31.25,108.92831168857462L32.5,106.27838854235236L33.75,103.69030742789671L35,101.16268646344464L36.25000000000001,98.69417327231945L37.5,96.28344438234467L38.75,93.92920463688223L40,91.63018661728171L41.25,89.38515007653642L42.50000000000001,87.19288138392946L43.75,85.05219298048135L45,82.96192284498662L46.25,80.92093397045271L47.5,78.92811385074832L48.75000000000001,76.98237397726531L50,75.08264934542042L51.25000000000001,73.22789797080289L52.5,71.41710041479638L53.75,69.64925931949925L55.00000000000001,67.92339895176367L56.25,66.23856475619382L57.50000000000001,64.59382291692737L58.75,62.988259928041224L60.00000000000001,61.42098217242204L61.25000000000001,59.891115508936245L62.5,58.39780486775447L63.75000000000001,56.9402138536679L65,55.51752435725319L66.25000000000001,54.12893617373828L67.5,52.77366662941889L68.75,51.45095021549264L70,50.16003822916264L71.25,48.90019842187876L72.50000000000001,47.670714654582234L73.75,46.47088655981608L75,45.30002921057954L76.25,44.15747279579125L77.5,43.0425623022409L78.75000000000001,41.9546572029061L80,40.89313115150954L81.25,39.857371683204356L82.5,38.84677992126433L83.75,37.860770289670675L85.00000000000001,36.89877023147914L86.25,35.96021993285734L87.5,35.044572052687606L88.75,34.151291457623365L90,33.27985496250017L91.25000000000001,32.42975107599517L92.5,31.600479751434783L93.75,30.791552142654698L95,30.00249036480995L96.25,29.2328272600453L97.50000000000001,28.482106167928457L98.75,27.749880700555195L100,27.035714522238074L101.25,26.33918113368687L102.50000000000001,25.65986366059736L103.75000000000001,24.99735464656039L105,24.351255850208187L106.25,23.721178046517633L107.5,23.1067408321856L108.75000000000001,22.5075724350021L110.00000000000001,21.923309527139544L111.25,21.353597042283077L112.5,20.798087996528402L113.75,20.256443312970763L115.00000000000001,19.728331649915454L116.25000000000001,19.213429232637868L117.5,18.711419688622577L118.75,18.22199388621586L120.00000000000001,17.74484977662123L121.25000000000001,17.279692239175336L122.50000000000001,16.82623292983778L123.75,16.384190132831723L125,15.953288615374506L126.25000000000001,15.533259485434847L127.50000000000001,15.123840052459482L128.75,14.724773691008352L130,14.335809707241886L131.25,13.956703208203415L132.50000000000003,13.58721497384101L133.75,13.227111331715037L135,12.876164034337112L136.25,12.534150139088386L137.5,12.20085189066622L138.75000000000003,11.876056606007523L140,11.55955656164085L141.25,11.251148883417251L142.5,10.950635438572998L143.75,10.657822730077338L145.00000000000003,10.372521793219057L146.25,10.09454809438719L147.5,9.823721432001786L148.75,9.559865839550842L150,9.302809490691978L151.25000000000003,9.052384606375563L152.5,8.808427363950578L153.75,8.570777808210895L155,8.339279764344166L156.25,8.113780752744448L157.50000000000003,7.894131905649893L158.75,7.680187885569523L160,7.471806805462289L161.25,7.268850150632122L162.5,7.071182702305001L163.75000000000003,6.878672462852808L165,6.6911905826309015L166.25,6.50861128839606L167.5,6.330811813272419L168.75,6.157672328234032L170.00000000000003,5.9890758750722695L171.25,5.8249083008180325L172.5,5.665058193588868L173.75,5.509416819830992L175,5.357878062928423L176.25000000000003,5.21033836315008L177.5,5.066696658907621L178.75,4.926854329297048L180,4.790715137897017L181.25,4.658185177798058L182.50000000000003,4.5291728178372015L183.75,4.40358865001278L185,4.281345438054807L186.25,4.162358067127081L187.5,4.046543494637156L188.75000000000003,3.933820702131041L190,3.824110648250234L191.25,3.717336222728429L192.5,3.613422201406369L193.75,3.512295202243454L195.00000000000003,3.4138836423050156L196.25,3.3181176957049363L197.5,3.2249292524831885L198.75,3.134251878398908L200,3.0460207756196622" stroke="#e45756" stroke-width="2"/></g></g><path class="foreground" aria-hidden="true" d="" display="none"/></g></g></g><path class="foreground" aria-hidden="true" d="" display="none"/></g></g><g class="mark-group role-scope concat_1_group" role="graphics-object" aria-roledescription="group mark container"><g transform="translate(366,0)"><path class="background" aria-hidden="true" d="M0.5,0.5h200v200h-200Z" stroke="#ddd"/><g><g class="mark-group role-axis" aria-hidden="true"><g transform="translate(0.5,200.5)"><path class="background" aria-hidden="true" d="M0,0h0v0h0Z" pointer-events="none"/><g><g class="mark-rule role-axis-grid" pointer-events="none"><line transform="translate(0,-200)" x2="0" y2="200" stroke="#ddd" stroke-width="1" opacity="1"/><line transform="translate(63,-200)" x2="0" y2="200" stroke="#ddd" stroke-width="1" opacity="1"/><line transform="translate(125,-200)" x2="0" y2="200" stroke="#ddd" stroke-width="1" opacity="1"/><line transform="translate(188,-200)" x2="0" y2="200" stroke="#ddd" stroke-width="1" opacity="1"/></g></g><path class="foreground" aria-hidden="true" d="" pointer-events="none" display="none"/></g></g><g class="mark-group role-axis" aria-hidden="true"><g transform="translate(0.5,0.5)"><path class="background" aria-hidden="true" d="M0,0h0v0h0Z" pointer-events="none"/><g><g class="mark-rule role-axis-grid" pointer-events="none"><line transform="translate(0,200)" x2="200" y2="0" stroke="#ddd" stroke-width="1" opacity="1"/><line transform="translate(0,160)" x2="200" y2="0" stroke="#ddd" stroke-width="1" opacity="1"/><line transform="translate(0,120)" x2="200" y2="0" stroke="#ddd" stroke-width="1" opacity="1"/><line transform="translate(0,80)" x2="200" y2="0" stroke="#ddd" stroke-width="1" opacity="1"/><line transform="translate(0,40)" x2="200" y2="0" stroke="#ddd" stroke-width="1" opacity="1"/><line transform="translate(0,0)" x2="200" y2="0" stroke="#ddd" stroke-width="1" opacity="1"/></g></g><path class="foreground" aria-hidden="true" d="" pointer-events="none" display="none"/></g></g><g class="mark-group role-axis" role="graphics-symbol" aria-roledescription="axis" aria-label="X-axis titled 'Percentage of the Population with COVID' for a linear scale with values from 0 to 16"><g transform="translate(0.5,200.5)"><path class="background" aria-hidden="true" d="M0,0h0v0h0Z" pointer-events="none"/><g><g class="mark-rule role-axis-tick" pointer-events="none"><line transform="translate(0,0)" x2="0" y2="5" stroke="#888" stroke-width="1" opacity="1"/><line transform="translate(63,0)" x2="0" y2="5" stroke="#888" stroke-width="1" opacity="1"/><line transform="translate(125,0)" x2="0" y2="5" stroke="#888" stroke-width="1" opacity="1"/><line transform="translate(188,0)" x2="0" y2="5" stroke="#888" stroke-width="1" opacity="1"/></g><g class="mark-text role-axis-label" pointer-events="none"><text text-anchor="start" transform="translate(0,15)" font-family="sans-serif" font-size="10px" fill="#000" opacity="1">0</text><text text-anchor="middle" transform="translate(62.5,15)" font-family="sans-serif" font-size="10px" fill="#000" opacity="1">5</text><text text-anchor="middle" transform="translate(125,15)" font-family="sans-serif" font-size="10px" fill="#000" opacity="1">10</text><text text-anchor="middle" transform="translate(187.5,15)" font-family="sans-serif" font-size="10px" fill="#000" opacity="1">15</text></g><g class="mark-rule role-axis-domain" pointer-events="none"><line transform="translate(0,0)" x2="200" y2="0" stroke="#888" stroke-width="1" opacity="1"/></g><g class="mark-text role-axis-title" pointer-events="none"><text text-anchor="middle" transform="translate(100,30)" font-family="sans-serif" font-size="11px" font-weight="bold" fill="#000" opacity="1">Percentage of the Population with COVID</text></g></g><path class="foreground" aria-hidden="true" d="" pointer-events="none" display="none"/></g></g><g class="mark-group role-axis" role="graphics-symbol" aria-roledescription="axis" aria-label="Y-axis titled 'P(A)' for a linear scale with values from 0 to 100"><g transform="translate(0.5,0.5)"><path class="background" aria-hidden="true" d="M0,0h0v0h0Z" pointer-events="none"/><g><g class="mark-rule role-axis-tick" pointer-events="none"><line transform="translate(0,200)" x2="-5" y2="0" stroke="#888" stroke-width="1" opacity="1"/><line transform="translate(0,160)" x2="-5" y2="0" stroke="#888" stroke-width="1" opacity="1"/><line transform="translate(0,120)" x2="-5" y2="0" stroke="#888" stroke-width="1" opacity="1"/><line transform="translate(0,80)" x2="-5" y2="0" stroke="#888" stroke-width="1" opacity="1"/><line transform="translate(0,40)" x2="-5" y2="0" stroke="#888" stroke-width="1" opacity="1"/><line transform="translate(0,0)" x2="-5" y2="0" stroke="#888" stroke-width="1" opacity="1"/></g><g class="mark-text role-axis-label" pointer-events="none"><text text-anchor="end" transform="translate(-7,203)" font-family="sans-serif" font-size="10px" fill="#000" opacity="1">0</text><text text-anchor="end" transform="translate(-7,163)" font-family="sans-serif" font-size="10px" fill="#000" opacity="1">20</text><text text-anchor="end" transform="translate(-7,123)" font-family="sans-serif" font-size="10px" fill="#000" opacity="1">40</text><text text-anchor="end" transform="translate(-7,83)" font-family="sans-serif" font-size="10px" fill="#000" opacity="1">60</text><text text-anchor="end" transform="translate(-7,42.99999999999999)" font-family="sans-serif" font-size="10px" fill="#000" opacity="1">80</text><text text-anchor="end" transform="translate(-7,3)" font-family="sans-serif" font-size="10px" fill="#000" opacity="1">100</text></g><g class="mark-rule role-axis-domain" pointer-events="none"><line transform="translate(0,200)" x2="0" y2="-200" stroke="#888" stroke-width="1" opacity="1"/></g><g class="mark-text role-axis-title" pointer-events="none"><text text-anchor="middle" transform="translate(-35,100) rotate(-90) translate(0,-2)" font-family="sans-serif" font-size="11px" font-weight="bold" fill="#000" opacity="1">P(A)</text></g></g><path class="foreground" aria-hidden="true" d="" pointer-events="none" display="none"/></g></g><g class="mark-group role-scope concat_1_pathgroup" role="graphics-object" aria-roledescription="group mark container"><g transform="translate(0,0)"><path class="background" aria-hidden="true" d="M0,0h200v200h-200Z"/><g><g class="mark-line role-mark concat_1_marks" role="graphics-object" aria-roledescription="line mark container"><path aria-label="Percentage of the Population with COVID: 0; P(A): 0; Pool Size: 5" role="graphics-symbol" aria-roledescription="line mark" d="M0,200L1.25,199.99998725747537L2.5,199.9998985176171L3.7500000000000004,199.99965903539575L5,199.99919541849042L6.25,199.99843561261304L7.500000000000001,199.99730888695058L8.75,199.9957458197255L10,199.99367828387332L11.25,199.99103943283646L12.5,199.98776368647378L13.750000000000002,199.98378671708522L15.000000000000002,199.97904543555003L16.25,199.97347797757914L17.5,199.96702369007963L18.75,199.9596231176315L20,199.95121798907542L21.250000000000004,199.94175120421122L22.5,199.9311668206059L23.75,199.91941004051117L25,199.90642719788866L26.25,199.89216574554337L27.500000000000004,199.87657424236392L28.750000000000004,199.85960234066886L30.000000000000004,199.84120077365876L31.25,199.82132134297305L32.5,199.79991690635106L33.75,199.77694136539654L35,199.752349653445L36.25000000000001,199.72609772353317L37.5,199.69814253646993L38.75,199.66844204900798L40,199.63695520211562L41.25,199.60364190934817L42.50000000000001,199.56846304531777L43.75,199.53138043426185L45,199.49235683870856L46.25,199.4513559482395L47.5,199.40834236834817L48.75000000000001,199.3632816093944L50,199.3161400756533L51.25000000000001,199.26688505445892L52.5,199.21548470544096L53.75,199.16190804985504L55.00000000000001,199.10612496000505L56.25,199.0481061487572L57.50000000000001,198.98782315914556L58.75,198.92524835406763L60.00000000000001,198.8603549060703L61.25000000000001,198.79311678722468L62.5,198.7235087590899L63.75000000000001,198.651506362765L65,198.57708590902803L66.25000000000001,198.5002244685625L67.5,198.42089986226958L68.75,198.33909065166657L70,198.25477612937L71.25,198.16793630966356L72.50000000000001,198.07855191915004L73.75,197.98660438748638L75,197.89207583820172L76.25,197.79494907959761L77.5,197.6952075957301L78.75000000000001,197.59283553747244L80,197.48781771365893L81.25,197.38013958230837L82.5,197.26978724192693L83.75,197.15674742289016L85.00000000000001,197.04100747890303L86.25,196.92255537853796L87.5,196.80137969685006L88.75,196.67746960706884L90,196.5508148723664L91.25000000000001,196.42140583770114L92.5,196.28923342173636L93.75,196.15428910883375L95,196.01656494112063L96.25,195.87605351063098L97.50000000000001,195.73274795151926L98.75,195.5866419323466L100,195.43772964843947L101.25,195.28600581431925L102.50000000000001,195.1314656562029L103.75000000000001,194.97410490457432L105,194.81391978682535L106.25,194.65090701996644L107.5,194.48506380340586L108.75000000000001,194.31638781179802L110.00000000000001,194.14487718795917L111.25,193.97053053585068L112.5,193.7933469136297L113.75,193.61332582676565L115.00000000000001,193.43046722122338L116.25000000000001,193.24477147671143L117.5,193.05623939999558L118.75,192.864872218277L120.00000000000001,192.67067157263418L121.25000000000001,192.47363951152914L122.50000000000001,192.27377848437627L123.75,192.0710913351742L125,191.86558129620002L126.25000000000001,191.6572519817647L127.50000000000001,191.44610738203082L128.75,191.2321518568907L130,191.01539012990466L131.25,190.79582728230014L132.50000000000003,190.57346874702947L133.75,190.34832030288774L135,190.12038806868836L136.25,189.8896784974978L137.5,189.65619837092757L138.75000000000003,189.41995479348367L140,189.18095518697334L141.25,188.93920728496798L142.5,188.69471912732237L143.75,188.44749905474976L145.00000000000003,188.19755570345166L146.25,187.94489799980326L147.5,187.68953515509276L148.75,187.43147666031493L150,187.17073228101845L151.25000000000003,186.907312052206L152.5,186.64122627328788L153.75,186.37248550308743L155,186.10110055489875L156.25,185.82708249159623L157.50000000000003,185.5504426207948L158.75,185.2711924900615L160,184.98934388217748L161.25,184.70490881044958L162.5,184.41789951407225L163.75000000000003,184.1283284535384L165,183.8362083060989L166.25,183.54155196127152L167.5,183.24437251639708L168.75,182.9446832722438L170.00000000000003,182.64249772865918L171.25,182.33782958026862L172.5,182.03069271222122L173.75,181.72110119598128L175,181.40906928516614L176.25000000000003,181.0946114114297L177.5,180.77774218039076L178.75,180.45847636760678L180,180.13682891459183L181.25,179.81281492487855L182.50000000000003,179.48644966012455L183.75,179.15774853626155L185,178.82672711968846L186.25,178.49340112350646L187.5,178.1577864037969L188.75000000000003,177.81989895594177L190,177.47975491098472L191.25,177.13737053203508L192.5,176.7927622107117L193.75,176.44594646362827L195.00000000000003,176.09693992891886L196.25,175.74575936280343L197.5,175.39242163619386L198.75,175.0369437313382L200,174.67934273850545" stroke="#4c78a8" stroke-width="2"/></g></g><path class="foreground" aria-hidden="true" d="" display="none"/></g><g transform="translate(0,0)"><path class="background" aria-hidden="true" d="M0,0h200v200h-200Z"/><g><g class="mark-line role-mark concat_1_marks" role="graphics-object" aria-roledescription="line mark container"><path aria-label="Percentage of the Population with COVID: 0; P(A): 0; Pool Size: 10" role="graphics-symbol" aria-roledescription="line mark" d="M0,200L1.25,199.99985593856715L2.5,199.9988612420735L3.7500000000000004,199.99620245969672L5,199.99110554536549L6.25,199.98283461205727L7.500000000000001,199.97069071841946L8.75,199.95401068697163L10,199.9321659531626L11.25,199.904561444571L12.5,199.8706344895527L13.750000000000002,199.82985375465424L15.000000000000002,199.7817182101238L16.25,199.72575612286835L17.5,199.6615240762156L18.75,199.58860601585718L20,199.50661232135872L21.250000000000004,199.41517890263893L22.5,199.3139663208303L23.75,199.20265893294723L25,199.08096405980064L26.25,198.94861117660813L27.500000000000004,198.8053511257626L28.750000000000004,198.650955351233L30.000000000000004,198.48521515408092L31.25,198.30794096859083L32.5,198.1189616585194L33.75,197.91812383298213L35,197.70529118150571L36.25000000000001,197.4803438277833L37.5,197.24317770168224L38.75,196.99370392906167L40,196.73184823896764L41.25,196.45755038778452L42.50000000000001,196.17076359992643L43.75,195.87145402466757L45,195.55960020871294L46.25,195.23519258412477L47.5,194.89823297122558L48.75000000000001,194.54873409610707L50,194.18671912238534L51.25000000000001,193.812221196846L52.5,193.4252830086354L53.75,193.0259563616591L55.00000000000001,192.61430175985618L56.25,192.19038800502815L57.50000000000001,191.7542918069038L58.75,191.3060974051332L60.00000000000001,190.84589620290853L61.25000000000001,190.37378641191495L62.5,189.88987270832553L63.75000000000001,189.39426589955602L65,188.88708260150474L66.25000000000001,188.36844492600915L67.5,187.8384801782533L68.75,187.29732056387232L70,186.74510290549935L71.25,186.18196836851115L72.50000000000001,185.6080621957327L73.75,185.02353345086397L75,184.4285347704031L76.25,183.82322212383903L77.5,183.20775458189678L78.75000000000001,182.58229409262213L80,181.94700526509462L81.25,181.3020551605687L82.5,180.64761309084025L83.75,179.9838504236474L85.00000000000001,179.31094039491379L86.25,178.62905792764877L87.5,177.93837945732588L88.75,177.23908276355917L90,176.53134680790853L91.25000000000001,175.81535157764327L92.5,175.09127793529896L93.75,174.35930747387027L95,173.61962237747835L96.25,172.87240528736382L97.50000000000001,172.11783917305434L98.75,171.35610720855945L100,170.58739265345469L101.25,169.81187873871076L102.50000000000001,169.02974855713725L103.75000000000001,168.24118495830572L105,167.44637044782303L106.25,166.64548709083232L107.5,165.83871641961417L108.75000000000001,165.0262393451727L110.00000000000001,164.2082360726869L111.25,163.3848860207134L112.5,162.55636774403257L113.75,161.7228588600245L115.00000000000001,160.88453597847447L116.25000000000001,160.04157463470145L117.5,159.19414922590937L118.75,158.342432950666L120.00000000000001,157.4865977514095L121.25000000000001,156.6268142598944L122.50000000000001,155.7632517454817L123.75,154.8960780661885L125,154.02545962240853L126.25000000000001,153.15156131321964L127.50000000000001,152.27454649519854L128.75,151.39457694366044L130,150.51181281624736L131.25,149.62641261878932L132.50000000000003,148.7385331733633L133.75,147.8483295884808L135,146.95595523133122L136.25,146.06156170201444L137.5,145.1652988096968L138.75000000000003,144.26731455062287L140,143.36775508792496L141.25,142.46676473316464L142.5,141.5644859295488L143.75,140.66105923676236L145.00000000000003,139.7566233173595L146.25,138.8513149246612L147.5,137.9452688921028L148.75,137.03861812398088L150,136.13149358754995L151.25000000000003,135.22402430641597L152.5,134.31633735518417L153.75,133.40855785530965L155,132.50080897210873L156.25,131.59321191288504L157.50000000000003,130.68588592612858L158.75,129.7789483017458L160,128.8725143722811L161.25,127.96669751508767L162.5,127.06160915541346L163.75000000000003,126.15735877036182L165,125.25405389369215L166.25,124.35180012142624L167.5,123.45070111822412L168.75,122.55085862449837L170.00000000000003,121.65237246423419L171.25,120.75534055348314L172.5,119.85985890950286L173.75,118.96602166050943L175,118.07392105601751L176.25000000000003,117.18364747773961L177.5,116.29528945101555L178.75,115.40893365675053L180,114.52466494383123L181.25,113.64256634200014L182.50000000000003,112.76271907516133L183.75,111.8852025750964L185,111.01009449556796L186.25,110.13747072678801L187.5,109.26740541023219L188.75000000000003,108.39997095377774L190,107.53523804714682L191.25,106.67327567763687L192.5,105.81415114611636L193.75,104.95793008327277L195.00000000000003,104.10467646609165L196.25,103.25445263455231L197.5,102.40731930852407L198.75,101.56333560484524L200,100.72255905457341" stroke="#f58518" stroke-width="2"/></g></g><path class="foreground" aria-hidden="true" d="" display="none"/></g><g transform="translate(0,0)"><path class="background" aria-hidden="true" d="M0,0h200v200h-200Z"/><g><g class="mark-line role-mark concat_1_marks" role="graphics-object" aria-roledescription="line mark container"><path aria-label="Percentage of the Population with COVID: 0; P(A): 0; Pool Size: 25" role="graphics-symbol" aria-roledescription="line mark" d="M0,200L1.25,199.99732881288836L2.5,199.97935178614225L3.7500000000000004,199.93265703808495L5,199.84572616503084L6.25,199.70875785730803L7.500000000000001,199.51350536696904L8.75,199.25312683541273L10,198.92204755615802L11.25,198.5158333106775L12.5,198.03107397379108L13.750000000000002,197.46527663989204L15.000000000000002,196.81676757247118L16.25,196.0846023272515L17.5,195.2684834439446L18.75,194.36868514341006L20,193.3859845060071L21.250000000000004,192.3215986433633L22.5,191.17712740980903L23.75,189.95450123148382L25,188.6559336607776L26.25,187.28387829143554L27.500000000000004,185.84098969547625L28.750000000000004,184.3300880671666L30.000000000000004,182.75412728175567L31.25,181.11616609763544L32.5,179.41934225012335L33.75,177.66684920327845L35,175.86191534313767L36.25000000000001,174.00778541156626L37.5,172.10770399466165L38.75,170.1649008933617L40,168.18257821669005L41.25,166.16389904996942L42.50000000000001,164.11197756139032L43.75,162.02987042064473L45,159.92056941288956L46.25,157.78699514023617L47.5,155.631991711236L48.75000000000001,153.45832232652427L50,151.26866567595727L51.25000000000001,149.06561306919664L52.5,146.8516662278852L53.75,144.62923567327755L55.00000000000001,142.40063964849406L56.25,140.16810351951685L57.50000000000001,137.93375960359353L58.75,135.69964737796903L60.00000000000001,133.46771402578653L61.25000000000001,131.23981527962323L62.5,129.01771652651638L63.75000000000001,126.80309414142084L65,124.59753701894492L66.25000000000001,122.40254827586396L67.5,120.21954709936425L68.75,118.04987071826596L70,115.89477647654394L71.25,113.75544399042252L72.50000000000001,111.63297737209814L73.75,109.52840750477759L75,107.44269435525649L76.25,105.37672931162967L77.5,103.33133753502659L78.75000000000001,101.3072803154349L80,99.30525742274683L81.25,97.32590944517472L82.5,95.36982010806581L83.75,93.4375185670012L85.00000000000001,91.5294816698067L86.25,89.64613618280507L87.5,87.78786097728022L88.75,85.95498917268425L90,84.14781023366471L91.25000000000001,82.36657201845141L92.5,80.6114827765817L93.75,78.8827130943434L95,77.18039778665151L96.25,75.50463773441847L97.50000000000001,73.85550166674686L98.75,72.23302788754236L100,70.63722594637952L101.25,69.06807825364938L102.50000000000001,67.52554164021744L103.75000000000001,66.00954886197057L105,64.52001004978378L106.25,63.05681410556856L107.5,61.61983004516001L108.75000000000001,60.20890828891989L110.00000000000001,58.82388190099328L111.25,57.46456777824096L112.5,56.13076778992927L113.75,54.822269869299724L115.00000000000001,53.538849058193435L116.25000000000001,52.280268505930124L117.5,51.04628042366599L118.75,49.83662699548233L120.00000000000001,48.65104124745461L121.25000000000001,47.48924787597277L122.50000000000001,46.350964036576016L123.75,45.235900094564975L125,44.14376033865324L126.25000000000001,43.07424365889951L127.50000000000001,42.02704419016283L128.75,41.0018519222944L130,39.99835327827188L131.25,39.01623166145634L132.50000000000003,38.05516797313339L133.75,37.11484110147645L135,36.19492838304525L136.25,35.29510603790762L137.5,34.415049579448606L138.75000000000003,33.5544341998991L140,32.712935132596584L141.25,31.89022799195498L142.5,31.085989092098167L143.75,30.299895745082427L145.00000000000003,29.53162653960346L146.25,28.780861601057616L147.5,28.047282833799358L148.75,27.330574146406782L150,26.630421660744098L151.25000000000003,25.946513905577227L152.5,25.27854199548012L153.75,24.626199795734216L155,23.98918407390522L156.25,23.367194638753563L157.50000000000003,22.759934467107445L158.75,22.167109819309804L160,21.588430343821496L161.25,21.023609171541512L162.5,20.47236300038535L163.75000000000003,19.934412170636495L165,19.409480731570294L166.25,18.897296499822925L167.5,18.397591109963972L168.75,17.91010005770881L170.00000000000003,17.434562736187754L171.25,16.970722465673525L172.5,16.518326517149575L173.75,16.077126130083343L175,15.646876524756692L176.25000000000003,15.227336909484546L177.5,14.818270483041562L178.75,14.419444432601548L180,14.030629927477323L181.25,13.651602108938787L182.50000000000003,13.28214007637234L183.75,12.922026870031367L185,12.57104945061669L186.25,12.228998675914248L187.5,11.895669274704911L188.75000000000003,11.570859818151668L190,11.254372688859405L191.25,10.94601404779123L192.5,10.645593799217057L193.75,10.352925553861002L195.00000000000003,10.067826590404527L196.25,9.790117815495304L197.5,9.519623722402205L198.75,9.256172348450908L200,8.999595231366776" stroke="#e45756" stroke-width="2"/></g></g><path class="foreground" aria-hidden="true" d="" display="none"/></g></g></g><path class="foreground" aria-hidden="true" d="" display="none"/></g></g><g class="mark-group role-legend" role="graphics-symbol" aria-roledescription="legend" aria-label="Symbol legend titled 'Pool Size' for stroke color with 3 values: 5, 10, 25"><g transform="translate(657,0)"><path class="background" aria-hidden="true" d="M0,0h79v53h-79Z" pointer-events="none"/><g><g class="mark-group role-legend-entry"><g transform="translate(0,16)"><path class="background" aria-hidden="true" d="M0,0h0v0h0Z" pointer-events="none"/><g><g class="mark-group role-scope" role="graphics-object" aria-roledescription="group mark container"><g transform="translate(0,0)"><path class="background" aria-hidden="true" d="M0,0h32v11h-32Z" pointer-events="none" opacity="1"/><g><g class="mark-symbol role-legend-symbol" pointer-events="none"><path transform="translate(6,6)" d="M-5,0L5,0" stroke="#4c78a8" stroke-width="1.5" opacity="1"/></g><g class="mark-text role-legend-label" pointer-events="none"><text text-anchor="start" transform="translate(16,9)" font-family="sans-serif" font-size="10px" fill="#000" opacity="1">5</text></g></g><path class="foreground" aria-hidden="true" d="" pointer-events="none" display="none"/></g><g transform="translate(0,13)"><path class="background" aria-hidden="true" d="M0,0h32v11h-32Z" pointer-events="none" opacity="1"/><g><g class="mark-symbol role-legend-symbol" pointer-events="none"><path transform="translate(6,6)" d="M-5,0L5,0" stroke="#f58518" stroke-width="1.5" opacity="1"/></g><g class="mark-text role-legend-label" pointer-events="none"><text text-anchor="start" transform="translate(16,9)" font-family="sans-serif" font-size="10px" fill="#000" opacity="1">10</text></g></g><path class="foreground" aria-hidden="true" d="" pointer-events="none" display="none"/></g><g transform="translate(0,26)"><path class="background" aria-hidden="true" d="M0,0h32v11h-32Z" pointer-events="none" opacity="1"/><g><g class="mark-symbol role-legend-symbol" pointer-events="none"><path transform="translate(6,6)" d="M-5,0L5,0" stroke="#e45756" stroke-width="1.5" opacity="1"/></g><g class="mark-text role-legend-label" pointer-events="none"><text text-anchor="start" transform="translate(16,9)" font-family="sans-serif" font-size="10px" fill="#000" opacity="1">25</text></g></g><path class="foreground" aria-hidden="true" d="" pointer-events="none" display="none"/></g></g></g><path class="foreground" aria-hidden="true" d="" pointer-events="none" display="none"/></g></g><g class="mark-text role-legend-title" pointer-events="none"><text text-anchor="start" transform="translate(0,9)" font-family="sans-serif" font-size="11px" font-weight="bold" fill="#000" opacity="1">Pool Size</text></g></g><path class="foreground" aria-hidden="true" d="" pointer-events="none" display="none"/></g></g></g><path class="foreground" aria-hidden="true" d="" display="none"/></g></g></g></svg>